# xmcd CD database file
#
# Track frame offsets:
#	150
#	13386
#	28045
#	41832
#	54175
#	67013
#	79876
#	92369
#	104251
#	116683
#	129823
#	143142
#	154552
#	168066
#	180165
#	194190
#	206797
#	220753
#	234161
#	246578
#	259545
#	272054
#	286230
#	298984
#	311871
#
# Disc length: 4343 seconds
#
# Revision: 1
# Processed by: cddbd v1.5.2PL0 Copyright (c) Steve Scherf et al.
# Submitted via: CDex 1.51
#
DISCID=6d10f519
DTITLE=Billie Holiday - Kind Of Holiday [CD3] - Early Great Vol.3
DYEAR=2009
DGENRE=Jazz
TTITLE0=Strange Fruit (Allan)
TTITLE1=Yesterdays (Kern/Harbach)
TTITLE2=Fine And Mellow (Holiday)
TTITLE3=I Gotta Right To Sing The Blues (Arlen/Koehler)
TTITLE4=Night And Day (Porter)
TTITLE5=The Man I Love (Gershwin)
TTITLE6=Body And Soul (Green/Eyton/Heyman/Sour)
TTITLE7=Falling In Love Again (Holiaender/Connelly)
TTITLE8=Laughing At Life (Todd/Todd/Kenny/Kenny)
TTITLE9=Time On My Hands (Adamson/Gordon/Youmans)
TTITLE10=I'm All For You (Bresler/Wynn)
TTITLE11=I Hear Music (Lane/Loesser)
TTITLE12=The Same Old Story (Maschwitz/Sherwin)
TTITLE13=St Louis Blues (Handy)
TTITLE14=Loveless Love (Handy)
TTITLE15=Let's Do It (Let's Fall In Love)(Porter)
TTITLE16=Georgia On My Mind (Gorrell/Carmichael)
TTITLE17=I'm In A Low Down Groove (Jordan)
TTITLE18=God Bless The Child (Herzog/Holiday)
TTITLE19=Am I Blue (Clarke/Akst)
TTITLE20=I Cover The Waterfront (Heyman/Green)
TTITLE21=Love Me Or Leave Me (Kahn/Donaldson)
TTITLE22=Mandy Is Two (Mercer/McGrath)
TTITLE23=It's A Sin To Tell A Lie (Mayhew)
TTITLE24=Travellin' Light (Mundy/Young/Mercer)
EXTD=YEAR: 2009
EXTT0=
EXTT1=
EXTT2=
EXTT3=
EXTT4=
EXTT5=
EXTT6=
EXTT7=
EXTT8=
EXTT9=
EXTT10=
EXTT11=
EXTT12=
EXTT13=
EXTT14=
EXTT15=
EXTT16=
EXTT17=
EXTT18=
EXTT19=
EXTT20=
EXTT21=
EXTT22=
EXTT23=
EXTT24=
PLAYORDER=
